<svg xmlns="http://www.w3.org/2000/svg" viewBox="0 0 1254 1254" role="img" aria-labelledby="title desc">
  <title id="title">NeoResearch vector logo</title>
  <desc id="desc">Vector recreation of the NeoResearch time-series research robot logo.</desc>
  <defs>
    <linearGradient id="purple" x1="0" y1="0" x2="1" y2="1">
      <stop offset="0" stop-color="#c9b6ff"/>
      <stop offset="0.52" stop-color="#7b58e8"/>
      <stop offset="1" stop-color="#4357d7"/>
    </linearGradient>
    <linearGradient id="navy" x1="0" y1="0" x2="1" y2="1">
      <stop offset="0" stop-color="#12214a"/>
      <stop offset="1" stop-color="#050a20"/>
    </linearGradient>
    <linearGradient id="steel" x1="0" y1="0" x2="1" y2="1">
      <stop offset="0" stop-color="#ffffff"/>
      <stop offset="0.55" stop-color="#d7d5f2"/>
      <stop offset="1" stop-color="#8f8bc7"/>
    </linearGradient>
    <linearGradient id="paper" x1="0" y1="0" x2="1" y2="1">
      <stop offset="0" stop-color="#fff8df"/>
      <stop offset="1" stop-color="#e8d8b9"/>
    </linearGradient>
    <filter id="softShadow" x="-20%" y="-20%" width="140%" height="150%">
      <feDropShadow dx="0" dy="12" stdDeviation="16" flood-color="#050a20" flood-opacity="0.24"/>
    </filter>
    <filter id="smallShadow" x="-20%" y="-20%" width="140%" height="150%">
      <feDropShadow dx="0" dy="6" stdDeviation="8" flood-color="#050a20" flood-opacity="0.22"/>
    </filter>
    <style>
      .outline { stroke:#050a20; stroke-width:12; stroke-linecap:round; stroke-linejoin:round; }
      .thin { stroke:#7b58e8; stroke-width:6; stroke-linecap:round; stroke-linejoin:round; }
      .grid { stroke:#4e60a6; stroke-width:4; opacity:.55; }
      .label { font-family:Arial, Helvetica, sans-serif; font-weight:800; letter-spacing:.02em; }
    </style>
  </defs>

  <rect width="1254" height="1254" rx="80" fill="#ffffff"/>

  <g filter="url(#softShadow)">
    <circle cx="626" cy="554" r="418" fill="#ffffff"/>
    <path d="M192 760 A455 455 0 1 1 1010 788" fill="none" stroke="#060b22" stroke-width="18"/>
    <path d="M184 760 A455 455 0 1 1 1028 784" fill="none" stroke="url(#purple)" stroke-width="9"/>
    <path d="M182 760 C274 936 432 1008 626 1008 C820 1008 970 924 1030 786 L1030 878 C914 1014 774 1068 626 1068 C430 1068 268 988 182 842 Z" fill="#252444" opacity=".92"/>
  </g>

  <g opacity=".9">
    <path d="M626 146 L640 194 L688 206 L640 220 L626 270 L610 220 L562 206 L610 192 Z" fill="url(#purple)" opacity=".86"/>
    <path d="M1088 866 L1104 912 L1150 928 L1104 944 L1088 990 L1072 944 L1026 928 L1072 912 Z" fill="#ffffff" stroke="#061129" stroke-width="8"/>
    <path d="M1090 902 L1098 928 L1124 936 L1098 944 L1090 970 L1082 944 L1056 936 L1082 928 Z" fill="url(#purple)"/>
    <circle cx="720" cy="240" r="7" fill="#7b58e8"/>
    <circle cx="684" cy="290" r="9" fill="#7b58e8"/>
    <circle cx="782" cy="572" r="7" fill="#7b58e8"/>
    <path d="M768 612 L778 638 L806 646 L778 654 L768 682 L758 654 L730 646 L758 638 Z" fill="#7b58e8"/>
    <path d="M358 370 L366 392 L390 400 L366 408 L358 432 L350 408 L326 400 L350 392 Z" fill="#7b58e8"/>
  </g>

  <g filter="url(#smallShadow)">
    <path d="M254 210 H440 A20 20 0 0 1 460 230 V342 A20 20 0 0 1 440 362 H408 L410 404 L362 362 H254 A20 20 0 0 1 234 342 V230 A20 20 0 0 1 254 210 Z" fill="#13264e" class="outline"/>
    <path d="M256 210 H440 A20 20 0 0 1 460 230 V342 A20 20 0 0 1 440 362 H408 L410 404 L362 362 H254 A20 20 0 0 1 234 342 V230 A20 20 0 0 1 254 210 Z" fill="#172c60" stroke="#7656e9" stroke-width="7"/>
    <g>
      <path class="grid" d="M270 238 H436 M270 270 H436 M270 302 H436 M270 334 H436 M294 228 V344 M328 224 V344 M364 222 V344 M402 220 V344"/>
      <polyline points="268,322 302,288 338,316 374,282 392,296 422,266 440,236" fill="none" stroke="#ffffff" stroke-width="7" stroke-linecap="round" stroke-linejoin="round"/>
      <polyline points="268,322 302,288 338,316 374,282 392,296 422,266 440,236" fill="none" stroke="#b58cff" stroke-width="3" stroke-linecap="round" stroke-linejoin="round"/>
      <g fill="#f4edff" stroke="#b58cff" stroke-width="3">
        <circle cx="268" cy="322" r="7"/><circle cx="302" cy="288" r="7"/><circle cx="338" cy="316" r="7"/>
        <circle cx="374" cy="282" r="7"/><circle cx="392" cy="296" r="7"/><circle cx="422" cy="266" r="7"/><circle cx="440" cy="236" r="7"/>
      </g>
    </g>
  </g>

  <g filter="url(#smallShadow)">
    <path d="M816 214 C760 214 742 262 754 306 L736 386 L814 354 C838 372 882 380 926 370 C992 354 1036 306 1028 264 C1020 220 948 202 900 216 C876 208 842 206 816 214 Z" fill="#102445" class="outline"/>
    <path d="M816 214 C760 214 742 262 754 306 L736 386 L814 354 C838 372 882 380 926 370 C992 354 1036 306 1028 264 C1020 220 948 202 900 216 C876 208 842 206 816 214 Z" fill="#13264e" stroke="#7e62df" stroke-width="7"/>
    <path d="M836 246 C818 232 788 242 786 272 C758 278 764 320 794 318 C804 344 844 346 856 320 C884 346 928 334 930 300 C962 296 966 254 934 248 C922 224 884 222 872 244 C860 236 846 238 836 246 Z" fill="none" stroke="#d7b6ff" stroke-width="6"/>
    <g stroke="#caa6ff" stroke-width="4" fill="none">
      <path d="M808 312 L844 276 L904 298 L934 270"/>
      <path d="M844 276 L890 246 L904 298 L910 342"/>
      <path d="M818 280 L872 306 L910 342"/>
    </g>
    <g fill="#d9c2ff" stroke="#8d63ff" stroke-width="3">
      <circle cx="808" cy="312" r="8"/><circle cx="844" cy="276" r="8"/><circle cx="890" cy="246" r="8"/>
      <circle cx="904" cy="298" r="8"/><circle cx="934" cy="270" r="8"/><circle cx="872" cy="306" r="7"/><circle cx="910" cy="342" r="8"/>
    </g>
  </g>

  <g filter="url(#smallShadow)">
    <rect x="170" y="414" width="148" height="172" rx="14" fill="#0d1e40" class="outline"/>
    <rect x="170" y="414" width="148" height="172" rx="14" fill="#112654" stroke="#7252e0" stroke-width="7"/>
    <path d="M200 456 C188 464 188 474 198 480 C188 488 188 498 200 506" fill="none" stroke="#b78dff" stroke-width="5"/>
    <path d="M204 538 C192 546 192 556 202 562" fill="none" stroke="#b78dff" stroke-width="5"/>
    <g stroke-linecap="round" stroke-width="5">
      <path d="M224 454 H274" stroke="#9c71ff"/>
      <path d="M224 478 H298" stroke="#7e5dee"/>
      <path d="M224 500 H284" stroke="#7e5dee"/>
      <path d="M224 524 H304" stroke="#7e5dee"/>
      <path d="M224 548 H278" stroke="#7e5dee"/>
    </g>
  </g>

  <g filter="url(#smallShadow)">
    <rect x="810" y="436" width="226" height="138" rx="12" fill="#102445" class="outline"/>
    <rect x="810" y="436" width="226" height="138" rx="12" fill="#13264e" stroke="#8294cb" stroke-width="5"/>
    <g class="grid">
      <path d="M832 468 H1014 M832 504 H1014 M832 540 H1014"/>
      <path d="M846 450 V554 M890 450 V554 M934 450 V554 M978 450 V554"/>
    </g>
    <g fill="url(#purple)" stroke="#bca1ff" stroke-width="4">
      <rect x="844" y="522" width="18" height="24" rx="3"/>
      <rect x="882" y="488" width="24" height="58" rx="4"/>
      <rect x="926" y="474" width="24" height="72" rx="4"/>
      <rect x="968" y="458" width="24" height="88" rx="4"/>
      <rect x="1006" y="510" width="24" height="36" rx="4"/>
    </g>
  </g>

  <g filter="url(#softShadow)">
    <path d="M350 505 C358 420 430 348 536 340 H666 C770 348 842 420 850 508 C906 544 916 646 864 708 C836 740 792 756 754 746 L714 842 H494 L456 748 C410 760 362 742 334 704 C288 638 300 538 350 505 Z" fill="#f8f7ff" class="outline"/>
    <path d="M350 505 C358 420 430 348 536 340 H666 C770 348 842 420 850 508 C906 544 916 646 864 708 C836 740 792 756 754 746 L714 842 H494 L456 748 C410 760 362 742 334 704 C288 638 300 538 350 505 Z" fill="url(#steel)" stroke="#ffffff" stroke-width="5"/>
    <circle cx="578" cy="292" r="32" fill="url(#purple)" class="outline"/>
    <path d="M578 324 V352" class="outline" fill="none"/>
    <circle cx="578" cy="284" r="12" fill="#ffffff" opacity=".86"/>
    <path d="M446 362 C522 326 648 318 744 364" fill="none" stroke="#050a20" stroke-width="8"/>
    <path d="M416 386 C478 330 700 320 784 386" fill="none" stroke="#ffffff" stroke-width="6" opacity=".8"/>
    <path d="M404 452 C392 474 388 542 400 578" fill="none" stroke="#050a20" stroke-width="16"/>
    <path d="M824 452 C838 474 842 542 830 578" fill="none" stroke="#050a20" stroke-width="16"/>
    <ellipse cx="402" cy="512" rx="36" ry="70" fill="#f8f8ff" class="outline"/>
    <ellipse cx="402" cy="512" rx="16" ry="46" fill="#2146a9" stroke="#050a20" stroke-width="7"/>
    <ellipse cx="828" cy="512" rx="36" ry="70" fill="#f8f8ff" class="outline"/>
    <rect x="474" y="440" width="264" height="178" rx="60" fill="url(#navy)" class="outline"/>
    <ellipse cx="540" cy="530" rx="22" ry="38" fill="#ffffff"/>
    <ellipse cx="672" cy="530" rx="22" ry="38" fill="#ffffff"/>
    <path d="M592 584 C606 604 626 604 640 584" fill="none" stroke="#ffffff" stroke-width="8" stroke-linecap="round"/>
    <path d="M470 648 C502 608 548 592 608 598 C664 592 718 610 760 648 L728 812 H488 Z" fill="#211b42" class="outline"/>
    <path d="M456 650 C392 658 348 712 324 792 L468 844 L514 722 Z" fill="#29234f" class="outline"/>
    <path d="M750 650 C820 666 858 716 890 800 L724 846 L686 722 Z" fill="#29234f" class="outline"/>
    <path d="M450 428 C464 408 486 394 512 386" fill="none" stroke="#ffffff" stroke-width="22" opacity=".8" stroke-linecap="round"/>
  </g>

  <g filter="url(#smallShadow)">
    <path d="M338 802 C408 768 520 774 608 822 C512 850 426 858 338 842 Z" fill="url(#paper)" class="outline"/>
    <path d="M608 822 C690 774 796 768 858 802 L858 842 C770 858 690 852 608 822 Z" fill="url(#paper)" class="outline"/>
    <path d="M608 822 V882" stroke="#9b7d5a" stroke-width="5"/>
    <polyline points="388,842 422,812 456,832 494,804" fill="none" stroke="#6b6fcf" stroke-width="5"/>
    <polyline points="660,842 698,826 728,854 768,808 804,844" fill="none" stroke="#6b6fcf" stroke-width="5"/>
    <g stroke="#6b6fcf" stroke-width="5" stroke-linecap="round">
      <path d="M682 870 V846"/>
      <path d="M714 870 V832"/>
      <path d="M746 870 V812"/>
      <path d="M778 870 V846"/>
    </g>
  </g>

  <g filter="url(#smallShadow)">
    <path d="M640 850 L822 706 H982 L920 894 H686 Z" fill="#1b2c58" class="outline"/>
    <path d="M670 836 L838 724 H952 L904 872 H696 Z" fill="#243868"/>
    <path d="M784 780 L810 836 L842 804 L864 848" fill="none" stroke="url(#purple)" stroke-width="14" stroke-linecap="round" stroke-linejoin="round"/>
  </g>

  <g filter="url(#smallShadow)">
    <path d="M208 706 H312 A24 24 0 0 1 336 730 V830 A24 24 0 0 1 312 854 H208 A24 24 0 0 1 184 830 V730 A24 24 0 0 1 208 706 Z" fill="#102445" class="outline"/>
    <path d="M322 742 C372 736 376 824 322 816" fill="none" stroke="#102445" stroke-width="26"/>
    <ellipse cx="260" cy="704" rx="72" ry="22" fill="#ffffff" class="outline"/>
    <ellipse cx="260" cy="704" rx="54" ry="12" fill="#081229"/>
    <path d="M238 796 L260 774 L284 796 L302 772" fill="none" stroke="#ffffff" stroke-width="7" stroke-linecap="round" stroke-linejoin="round"/>
    <g fill="#ffffff"><circle cx="238" cy="796" r="6"/><circle cx="260" cy="774" r="6"/><circle cx="284" cy="796" r="6"/><circle cx="302" cy="772" r="6"/></g>
    <path d="M260 662 C230 628 286 620 260 584 C316 628 260 632 300 670" fill="none" stroke="#c7c5d8" stroke-width="12" opacity=".75" stroke-linecap="round"/>
  </g>

  <g filter="url(#smallShadow)">
    <g transform="translate(834 596)">
      <path d="M0 0 H210 L236 56 H26 Z" fill="#251e47" class="outline"/>
      <path d="M10 8 H214 L232 48 H28 Z" fill="#342866"/>
      <text class="label" x="26" y="38" fill="#ffffff" font-size="26">TIME SERIES</text>
      <path d="M196 6 L228 12 L236 38 L202 42 Z" fill="#efe0ca" stroke="#050a20" stroke-width="5"/>
    </g>
    <g transform="translate(826 656)">
      <path d="M0 0 H216 L242 56 H26 Z" fill="#1b2c58" class="outline"/>
      <path d="M12 8 H218 L236 48 H28 Z" fill="#263b78"/>
      <text class="label" x="26" y="38" fill="#dce7ff" font-size="24">FORECASTING</text>
      <path d="M200 6 L232 12 L240 38 L206 42 Z" fill="#efe0ca" stroke="#050a20" stroke-width="5"/>
    </g>
    <g transform="translate(814 716)">
      <path d="M0 0 H224 L250 58 H28 Z" fill="#1b2570" class="outline"/>
      <path d="M12 8 H228 L244 50 H30 Z" fill="#263ed0"/>
      <text class="label" x="54" y="40" fill="#ffffff" font-size="25">RESEARCH</text>
      <path d="M208 8 L240 14 L248 40 L214 44 Z" fill="#efe0ca" stroke="#050a20" stroke-width="5"/>
    </g>
  </g>

  <g filter="url(#softShadow)">
    <text x="112" y="1032" class="label" font-size="152" fill="#ffffff" stroke="#061129" stroke-width="34" stroke-linejoin="round" paint-order="stroke fill">NeoResearch</text>
    <text x="112" y="1032" class="label" font-size="152" fill="#ffffff" stroke="#ffffff" stroke-width="9" stroke-linejoin="round" paint-order="stroke fill">NeoResearch</text>
    <text x="112" y="1032" class="label" font-size="152" fill="url(#purple)">Neo</text>
    <text x="466" y="1032" class="label" font-size="152" fill="#ffffff">Research</text>
  </g>
</svg>
