<svg xmlns="http://www.w3.org/2000/svg" viewBox="0 0 960 260" role="img" aria-labelledby="title desc">
  <title id="title">NeoCast logo</title>
  <desc id="desc">NeoCast Forecast Research Operating System logo with time series and research loop motifs</desc>
  <defs>
    <linearGradient id="markGrad" x1="116" y1="34" x2="214" y2="204" gradientUnits="userSpaceOnUse">
      <stop offset="0" stop-color="#c0392b"/>
      <stop offset="0.48" stop-color="#e67e22"/>
      <stop offset="1" stop-color="#0f766e"/>
    </linearGradient>
    <linearGradient id="lineGrad" x1="86" y1="162" x2="260" y2="76" gradientUnits="userSpaceOnUse">
      <stop offset="0" stop-color="#0f766e"/>
      <stop offset="0.5" stop-color="#2471a3"/>
      <stop offset="1" stop-color="#c0392b"/>
    </linearGradient>
    <filter id="softShadow" x="-20%" y="-20%" width="140%" height="140%">
      <feDropShadow dx="0" dy="10" stdDeviation="12" flood-color="#1a1a1a" flood-opacity="0.13"/>
    </filter>
  </defs>

  <rect x="8" y="8" width="944" height="244" rx="34" fill="#fffdfa" stroke="#ead9d4"/>
  <g filter="url(#softShadow)">
    <circle cx="148" cy="130" r="86" fill="#fff8f3" stroke="#f0c8be" stroke-width="2"/>
    <path d="M94 157 C119 138 135 158 158 133 C177 112 191 116 215 86"
      fill="none" stroke="url(#lineGrad)" stroke-width="10" stroke-linecap="round"/>
    <path d="M92 184 C126 177 153 180 184 164 C203 154 217 149 238 147"
      fill="none" stroke="#90cdbf" stroke-width="6" stroke-linecap="round" opacity="0.9"/>
    <circle cx="95" cy="157" r="8" fill="#0f766e"/>
    <circle cx="158" cy="133" r="8" fill="#2471a3"/>
    <circle cx="215" cy="86" r="9" fill="#c0392b"/>
    <path d="M92 73 A85 85 0 0 1 206 52" fill="none" stroke="url(#markGrad)" stroke-width="8" stroke-linecap="round"/>
    <path d="M217 65 L219 35 L245 51" fill="none" stroke="#c0392b" stroke-width="7" stroke-linecap="round" stroke-linejoin="round"/>
    <path d="M215 187 A85 85 0 0 1 99 205" fill="none" stroke="#0f766e" stroke-width="8" stroke-linecap="round"/>
    <path d="M88 192 L84 222 L59 204" fill="none" stroke="#0f766e" stroke-width="7" stroke-linecap="round" stroke-linejoin="round"/>
  </g>

  <text x="306" y="111" fill="#111111" font-size="72" font-family="Arial, Helvetica, sans-serif" font-weight="800">NeoCast</text>
  <text x="310" y="154" fill="#c0392b" font-size="26" font-family="Arial, Helvetica, sans-serif" font-weight="700">Forecast Research Operating System</text>
  <text x="310" y="192" fill="#5d5d5d" font-size="22" font-family="Arial, Helvetica, sans-serif">Hypothesis · Recipe · Experiment · Memory</text>
</svg>
